<svg width="54" height="54" viewBox="0 0 54 54" fill="none" xmlns="http://www.w3.org/2000/svg">
<ellipse cx="27" cy="26.507" rx="27" ry="26.507" fill="#120F0F"/>
<path d="M33.9395 18.6524C34.7764 18.6536 35.3341 19.4524 35.2184 20.2812C35.1041 21.1009 34.3475 21.6184 33.5564 21.8616C33.2009 21.9709 32.9081 22.1448 32.678 22.3832C32.186 22.893 31.8853 23.5773 31.776 24.436C31.7362 24.7485 31.7073 25.0698 31.6892 25.4C31.6336 26.4162 32.4905 27.2134 33.5082 27.2134C34.5668 27.2134 35.425 28.0715 35.425 29.1302V32.2009C35.425 34.1369 33.8555 35.7064 31.9195 35.7064C29.9835 35.7064 28.414 34.1369 28.414 32.2009V25.6033C28.414 23.1345 29.0427 21.283 30.3 20.0486C31.2711 19.1155 32.4843 18.6501 33.9395 18.6524ZM23.5255 18.6524C24.3624 18.6536 24.9201 19.4524 24.8044 20.2812C24.6901 21.1009 23.9335 21.6184 23.1424 21.8616C22.7869 21.9709 22.4941 22.1448 22.264 22.3832C21.772 22.893 21.4713 23.5773 21.362 24.436C21.3222 24.7485 21.2933 25.0698 21.2752 25.4C21.2196 26.4162 22.0765 27.2134 23.0942 27.2134C24.1528 27.2134 25.011 28.0715 25.011 29.1302V32.2009C25.011 34.1369 23.4415 35.7064 21.5055 35.7064C19.5695 35.7064 18 34.1369 18 32.2009V25.6033C18 23.1345 18.6287 21.283 19.886 20.0486C20.8571 19.1155 22.0703 18.6501 23.5255 18.6524Z" fill="white"/>
</svg>
