<svg width="17" height="18" viewBox="0 0 17 18" fill="none" xmlns="http://www.w3.org/2000/svg">
<path d="M11.8779 3.21419H14.5446C14.7214 3.21419 14.891 3.28443 15.016 3.40946C15.141 3.53448 15.2113 3.70405 15.2113 3.88086V14.5475C15.2113 14.7243 15.141 14.8939 15.016 15.0189C14.891 15.1439 14.7214 15.2142 14.5446 15.2142H2.54459C2.36778 15.2142 2.19821 15.1439 2.07319 15.0189C1.94817 14.8939 1.87793 14.7243 1.87793 14.5475V3.88086C1.87793 3.70405 1.94817 3.53448 2.07319 3.40946C2.19821 3.28443 2.36778 3.21419 2.54459 3.21419H5.21126V1.88086H6.54459V3.21419H10.5446V1.88086H11.8779V3.21419ZM13.8779 8.54753H3.21126V13.8809H13.8779V8.54753ZM10.5446 4.54753H6.54459V5.88086H5.21126V4.54753H3.21126V7.21419H13.8779V4.54753H11.8779V5.88086H10.5446V4.54753ZM4.54459 9.88086H5.87793V11.2142H4.54459V9.88086ZM7.87793 9.88086H9.21126V11.2142H7.87793V9.88086ZM11.2113 9.88086H12.5446V11.2142H11.2113V9.88086Z" fill="#0C0407"/>
</svg>
