<svg width="17" height="18" viewBox="0 0 17 18" fill="none" xmlns="http://www.w3.org/2000/svg">
<path d="M8.5446 15.8782C4.8626 15.8782 1.87793 12.8936 1.87793 9.21159C1.87793 5.52959 4.8626 2.54492 8.5446 2.54492C12.2266 2.54492 15.2113 5.52959 15.2113 9.21159C15.2113 12.8936 12.2266 15.8782 8.5446 15.8782ZM8.5446 14.5449C9.95909 14.5449 11.3157 13.983 12.3158 12.9828C13.316 11.9826 13.8779 10.6261 13.8779 9.21159C13.8779 7.7971 13.316 6.44054 12.3158 5.44035C11.3157 4.44016 9.95909 3.87825 8.5446 3.87825C7.13011 3.87825 5.77356 4.44016 4.77336 5.44035C3.77317 6.44054 3.21127 7.7971 3.21127 9.21159C3.21127 10.6261 3.77317 11.9826 4.77336 12.9828C5.77356 13.983 7.13011 14.5449 8.5446 14.5449ZM9.21127 9.21159H11.8779V10.5449H7.87793V5.87825H9.21127V9.21159Z" fill="#0C0407"/>
</svg>
