<svg width="17" height="17" viewBox="0 0 17 17" fill="none" xmlns="http://www.w3.org/2000/svg">
<path d="M13.8776 14.9277H12.5442V13.5944C12.5442 13.064 12.3335 12.5553 11.9585 12.1802C11.5834 11.8051 11.0747 11.5944 10.5443 11.5944H6.54428C6.01384 11.5944 5.50514 11.8051 5.13006 12.1802C4.75499 12.5553 4.54428 13.064 4.54428 13.5944V14.9277H3.21094V13.5944C3.21094 12.7103 3.56213 11.8625 4.18725 11.2374C4.81238 10.6122 5.66022 10.2611 6.54428 10.2611H10.5443C11.4283 10.2611 12.2761 10.6122 12.9013 11.2374C13.5264 11.8625 13.8776 12.7103 13.8776 13.5944V14.9277ZM8.54428 8.92774C8.01899 8.92774 7.49885 8.82427 7.01354 8.62325C6.52824 8.42224 6.08728 8.1276 5.71585 7.75616C5.34442 7.38473 5.04978 6.94377 4.84876 6.45847C4.64774 5.97317 4.54428 5.45302 4.54428 4.92774C4.54428 4.40245 4.64774 3.8823 4.84876 3.397C5.04978 2.9117 5.34442 2.47074 5.71585 2.09931C6.08728 1.72787 6.52824 1.43324 7.01354 1.23222C7.49885 1.0312 8.01899 0.927734 8.54428 0.927734C9.60514 0.927734 10.6225 1.34916 11.3727 2.09931C12.1228 2.84945 12.5442 3.86687 12.5442 4.92774C12.5442 5.9886 12.1228 7.00602 11.3727 7.75616C10.6225 8.50631 9.60514 8.92774 8.54428 8.92774ZM8.54428 7.5944C9.25152 7.5944 9.9298 7.31345 10.4299 6.81335C10.93 6.31326 11.2109 5.63498 11.2109 4.92774C11.2109 4.22049 10.93 3.54221 10.4299 3.04212C9.9298 2.54202 9.25152 2.26107 8.54428 2.26107C7.83703 2.26107 7.15876 2.54202 6.65866 3.04212C6.15856 3.54221 5.87761 4.22049 5.87761 4.92774C5.87761 5.63498 6.15856 6.31326 6.65866 6.81335C7.15876 7.31345 7.83703 7.5944 8.54428 7.5944Z" fill="#0C0407"/>
</svg>
