<svg width="42" height="42" viewBox="0 0 42 42" fill="none" xmlns="http://www.w3.org/2000/svg">
<path d="M21.4497 40.7969C32.4954 40.7969 41.4497 31.8426 41.4497 20.7969C41.4497 9.75118 32.4954 0.796875 21.4497 0.796875C10.404 0.796875 1.44971 9.75118 1.44971 20.7969C1.44971 31.8426 10.404 40.7969 21.4497 40.7969Z" stroke="#222222"/>
<path d="M21.4497 40.2969C32.2193 40.2969 40.9497 31.5664 40.9497 20.7969C40.9497 10.0273 32.2193 1.29688 21.4497 1.29688C10.6802 1.29688 1.94971 10.0273 1.94971 20.7969C1.94971 31.5664 10.6802 40.2969 21.4497 40.2969Z" stroke="#222222"/>
<path d="M21.3721 28.6335C20.6506 28.6338 20.0656 28.049 20.0656 27.3275V22.104C20.0656 21.3827 19.4806 20.798 18.7594 20.798V20.798C18.0384 20.798 17.4536 20.2135 17.4536 19.4925V19.4925C17.4536 18.7715 18.0384 18.187 18.7594 18.187V18.187C19.4806 18.187 20.0656 17.6023 20.0656 16.881V16.787C20.0656 14.131 21.3586 12.966 23.5656 12.966C23.8055 12.9628 24.0454 12.9663 24.2849 12.9766C24.952 13.0053 25.4456 13.578 25.4456 14.2457V14.2457C25.4456 14.9826 24.8482 15.58 24.1113 15.58H23.9416C23.0046 15.58 22.6776 16.074 22.6776 17.08V17.08C22.6776 17.6914 23.1732 18.187 23.7846 18.187H23.9538C24.7299 18.187 25.3263 18.8739 25.2174 19.6423L25.2085 19.7047C25.1197 20.3319 24.5828 20.798 23.9494 20.798V20.798C23.247 20.798 22.6776 21.3674 22.6776 22.0698V27.3275C22.6776 28.0486 22.0932 28.6332 21.3721 28.6335V28.6335Z" stroke="#222222"/>
</svg>
