<svg width="13" height="12" viewBox="0 0 13 12" fill="none" xmlns="http://www.w3.org/2000/svg">
<path d="M8.51401 4.41016C9.38486 4.41016 10.22 4.7561 10.8358 5.37188C11.4516 5.98767 11.7976 6.82285 11.7976 7.6937V11.5245H9.60853V7.6937C9.60853 7.40342 9.49321 7.12502 9.28795 6.91976C9.08269 6.7145 8.8043 6.59919 8.51401 6.59919C8.22373 6.59919 7.94534 6.7145 7.74007 6.91976C7.53481 7.12502 7.4195 7.40342 7.4195 7.6937V11.5245H5.23047V7.6937C5.23047 6.82285 5.57641 5.98767 6.1922 5.37188C6.80798 4.7561 7.64316 4.41016 8.51401 4.41016Z" fill="black" stroke="black" stroke-width="0.5" stroke-linecap="round" stroke-linejoin="round"/>
<path d="M3.04059 4.95703H0.851562V11.5241H3.04059V4.95703Z" fill="black" stroke="black" stroke-width="0.5" stroke-linecap="round" stroke-linejoin="round"/>
<path d="M1.94608 3.31403C2.55056 3.31403 3.04059 2.824 3.04059 2.21951C3.04059 1.61503 2.55056 1.125 1.94608 1.125C1.34159 1.125 0.851562 1.61503 0.851562 2.21951C0.851562 2.824 1.34159 3.31403 1.94608 3.31403Z" fill="black" stroke="black" stroke-width="0.5" stroke-linecap="round" stroke-linejoin="round"/>
</svg>
