<svg width="22" height="22" viewBox="0 0 22 22" fill="none" xmlns="http://www.w3.org/2000/svg">
<path d="M15.4999 2.00391H6.49988C4.0146 2.00391 1.99988 4.01862 1.99988 6.50391V15.5039C1.99988 17.9892 4.0146 20.0039 6.49988 20.0039H15.4999C17.9852 20.0039 19.9999 17.9892 19.9999 15.5039V6.50391C19.9999 4.01862 17.9852 2.00391 15.4999 2.00391Z" stroke="black" stroke-width="1.2" stroke-linecap="round" stroke-linejoin="round"/>
<path d="M14.9566 10.4172C15.08 11.2494 14.9379 12.0994 14.5504 12.8462C14.1629 13.593 13.5498 14.1986 12.7982 14.5768C12.0467 14.9551 11.1951 15.0868 10.3644 14.9531C9.53374 14.8194 8.76638 14.4273 8.17145 13.8323C7.57653 13.2374 7.18435 12.47 7.05068 11.6394C6.91702 10.8087 7.04868 9.95707 7.42694 9.20555C7.8052 8.45403 8.4108 7.84092 9.1576 7.45342C9.9044 7.06592 10.7544 6.92377 11.5866 7.04718C12.4355 7.17306 13.2215 7.56864 13.8283 8.17548C14.4351 8.78232 14.8307 9.56825 14.9566 10.4172Z" stroke="black" stroke-width="1.2" stroke-linecap="round" stroke-linejoin="round"/>
</svg>
