<svg width="20" height="20" viewBox="0 0 20 20" fill="none" xmlns="http://www.w3.org/2000/svg">
<path d="M9.89287 2.75781C6.55294 2.75781 5.57614 2.76126 5.38627 2.77701C4.70086 2.83398 4.27436 2.9419 3.80971 3.17324C3.45162 3.35105 3.16921 3.55717 2.89049 3.8461C2.3829 4.37302 2.07526 5.02126 1.9639 5.79183C1.90976 6.16591 1.89401 6.2422 1.89081 8.15298C1.88958 8.78991 1.89081 9.62815 1.89081 10.7525C1.89081 14.0897 1.8945 15.0655 1.91049 15.255C1.96587 15.922 2.07046 16.3416 2.29196 16.8006C2.71527 17.6792 3.52373 18.3388 4.47617 18.5849C4.80595 18.6698 5.17019 18.7165 5.63779 18.7387C5.83591 18.7473 7.85522 18.7535 9.87577 18.7535C11.8963 18.7535 13.9169 18.751 14.11 18.7411C14.6515 18.7157 14.9659 18.6735 15.3135 18.5836C15.7858 18.4625 16.2259 18.2398 16.6032 17.931C16.9804 17.6221 17.2857 17.2347 17.4977 16.7957C17.7149 16.3478 17.825 15.9121 17.8749 15.28C17.8857 15.1422 17.8903 12.9448 17.8903 10.7504C17.8903 8.55562 17.8853 6.3623 17.8745 6.22448C17.8241 5.58214 17.7139 5.15022 17.4897 4.69369C17.3058 4.31998 17.1015 4.04089 16.8049 3.75553C16.2758 3.25003 15.6285 2.94239 14.8571 2.83115C14.4834 2.77713 14.4089 2.76113 12.4967 2.75781H9.89287Z" fill="url(#paint0_radial_2953_18742)"/>
<path d="M9.89287 2.75781C6.55294 2.75781 5.57614 2.76126 5.38627 2.77701C4.70086 2.83398 4.27436 2.9419 3.80971 3.17324C3.45162 3.35105 3.16921 3.55717 2.89049 3.8461C2.3829 4.37302 2.07526 5.02126 1.9639 5.79183C1.90976 6.16591 1.89401 6.2422 1.89081 8.15298C1.88958 8.78991 1.89081 9.62815 1.89081 10.7525C1.89081 14.0897 1.8945 15.0655 1.91049 15.255C1.96587 15.922 2.07046 16.3416 2.29196 16.8006C2.71527 17.6792 3.52373 18.3388 4.47617 18.5849C4.80595 18.6698 5.17019 18.7165 5.63779 18.7387C5.83591 18.7473 7.85522 18.7535 9.87577 18.7535C11.8963 18.7535 13.9169 18.751 14.11 18.7411C14.6515 18.7157 14.9659 18.6735 15.3135 18.5836C15.7858 18.4625 16.2259 18.2398 16.6032 17.931C16.9804 17.6221 17.2857 17.2347 17.4977 16.7957C17.7149 16.3478 17.825 15.9121 17.8749 15.28C17.8857 15.1422 17.8903 12.9448 17.8903 10.7504C17.8903 8.55562 17.8853 6.3623 17.8745 6.22448C17.8241 5.58214 17.7139 5.15022 17.4897 4.69369C17.3058 4.31998 17.1015 4.04089 16.8049 3.75553C16.2758 3.25003 15.6285 2.94239 14.8571 2.83115C14.4834 2.77713 14.4089 2.76113 12.4967 2.75781H9.89287Z" fill="url(#paint1_radial_2953_18742)"/>
<path d="M9.88913 4.84961C8.285 4.84961 8.08368 4.85662 7.45365 4.8853C6.82484 4.91409 6.39563 5.01364 6.02007 5.1597C5.63159 5.31057 5.30205 5.51238 4.97375 5.84081C4.64519 6.16912 4.44338 6.49865 4.29203 6.88701C4.14559 7.26269 4.04592 7.69203 4.01762 8.32059C3.98956 8.95062 3.98218 9.15206 3.98218 10.7562C3.98218 12.3603 3.98931 12.561 4.01786 13.1911C4.04678 13.8199 4.14633 14.2491 4.29227 14.6246C4.44326 15.0131 4.64507 15.3427 4.9735 15.671C5.30168 15.9995 5.63122 16.2018 6.01946 16.3527C6.39526 16.4987 6.8246 16.5983 7.45328 16.6271C8.08331 16.6558 8.28451 16.6628 9.88851 16.6628C11.4928 16.6628 11.6935 16.6558 12.3235 16.6271C12.9523 16.5983 13.382 16.4987 13.7578 16.3527C14.1462 16.2018 14.4752 15.9995 14.8034 15.671C15.132 15.3427 15.3338 15.0131 15.4851 14.6248C15.6303 14.2491 15.73 13.8197 15.7595 13.1912C15.7878 12.5611 15.7952 12.3603 15.7952 10.7562C15.7952 9.15206 15.7878 8.95075 15.7595 8.32071C15.73 7.69191 15.6303 7.26269 15.4851 6.88713C15.3338 6.49865 15.132 6.16912 14.8034 5.84081C14.4749 5.51225 14.1463 5.31045 13.7574 5.1597C13.3809 5.01364 12.9514 4.91409 12.3226 4.8853C11.6926 4.85662 11.492 4.84961 9.88741 4.84961H9.88913ZM9.35926 5.91402C9.51652 5.91378 9.692 5.91402 9.88913 5.91402C11.4662 5.91402 11.6531 5.91969 12.2759 5.94799C12.8518 5.97432 13.1643 6.07055 13.3725 6.1514C13.6482 6.25845 13.8447 6.38643 14.0513 6.59316C14.258 6.79989 14.386 6.99677 14.4933 7.27242C14.5742 7.48038 14.6705 7.79293 14.6967 8.36882C14.725 8.99148 14.7312 9.17852 14.7312 10.7548C14.7312 12.3312 14.725 12.5182 14.6967 13.1409C14.6704 13.7167 14.5742 14.0293 14.4933 14.2373C14.3863 14.5129 14.258 14.7092 14.0513 14.9158C13.8446 15.1225 13.6483 15.2505 13.3725 15.3575C13.1646 15.4388 12.8518 15.5347 12.2759 15.5611C11.6532 15.5894 11.4662 15.5955 9.88913 15.5955C8.31195 15.5955 8.12503 15.5894 7.50238 15.5611C6.92649 15.5345 6.61393 15.4383 6.4056 15.3574C6.12996 15.2504 5.93307 15.1224 5.72634 14.9157C5.51961 14.7089 5.39164 14.5125 5.28433 14.2368C5.20349 14.0288 5.10714 13.7162 5.08093 13.1404C5.05262 12.5177 5.04696 12.3307 5.04696 10.7534C5.04696 9.17606 5.05262 8.99 5.08093 8.36735C5.10726 7.79146 5.20349 7.4789 5.28433 7.27069C5.39139 6.99505 5.51961 6.79817 5.72634 6.59144C5.93307 6.38471 6.12996 6.25673 6.4056 6.14943C6.61381 6.06821 6.92649 5.97223 7.50238 5.94577C8.04726 5.92116 8.25842 5.91378 9.35926 5.91255V5.91402ZM13.042 6.89476C12.9018 6.89476 12.7648 6.93634 12.6482 7.01423C12.5316 7.09213 12.4408 7.20284 12.3872 7.33237C12.3335 7.4619 12.3195 7.60442 12.3469 7.74192C12.3742 7.87942 12.4418 8.00571 12.5409 8.10483C12.6401 8.20395 12.7664 8.27143 12.9039 8.29875C13.0414 8.32607 13.1839 8.312 13.3134 8.25832C13.4429 8.20463 13.5536 8.11375 13.6315 7.99716C13.7093 7.88056 13.7509 7.7435 13.7508 7.60331C13.7508 7.212 13.4333 6.89452 13.042 6.89452V6.89476ZM9.88913 7.72292C8.214 7.72292 6.85585 9.08106 6.85585 10.7562C6.85585 12.4313 8.214 13.7889 9.88913 13.7889C11.5643 13.7889 12.922 12.4313 12.922 10.7562C12.922 9.08106 11.5641 7.72292 9.88901 7.72292H9.88913ZM9.88913 8.78733C10.9764 8.78733 11.858 9.66876 11.858 10.7562C11.858 11.8435 10.9764 12.7251 9.88913 12.7251C8.8017 12.7251 7.92027 11.8435 7.92027 10.7562C7.92027 9.66876 8.8017 8.78733 9.88913 8.78733V8.78733Z" fill="white"/>
<defs>
<radialGradient id="paint0_radial_2953_18742" cx="0" cy="0" r="1" gradientUnits="userSpaceOnUse" gradientTransform="translate(6.14028 19.9855) rotate(-90) scale(15.8529 14.7484)">
<stop stop-color="#FFDD55"/>
<stop offset="0.1" stop-color="#FFDD55"/>
<stop offset="0.5" stop-color="#FF543E"/>
<stop offset="1" stop-color="#C837AB"/>
</radialGradient>
<radialGradient id="paint1_radial_2953_18742" cx="0" cy="0" r="1" gradientUnits="userSpaceOnUse" gradientTransform="translate(-0.789826 3.91011) rotate(78.6776) scale(7.08637 29.2177)">
<stop stop-color="#3771C8"/>
<stop offset="0.128" stop-color="#3771C8"/>
<stop offset="1" stop-color="#6600FF" stop-opacity="0"/>
</radialGradient>
</defs>
</svg>
