<svg width="45" height="44" viewBox="0 0 45 44" fill="none" xmlns="http://www.w3.org/2000/svg">
<rect x="1.44971" y="0.796875" width="42" height="42" rx="21" stroke="#222222" stroke-width="1.3"/>
<path d="M26.5964 13.5039H18.303C16.0128 13.5039 14.1562 15.3605 14.1562 17.6506V25.9441C14.1562 28.2343 16.0128 30.0908 18.303 30.0908H26.5964C28.8866 30.0908 30.7432 28.2343 30.7432 25.9441V17.6506C30.7432 15.3605 28.8866 13.5039 26.5964 13.5039Z" stroke="black" stroke-linecap="round" stroke-linejoin="round"/>
<path d="M25.7671 21.2761C25.8695 21.9663 25.7516 22.6712 25.4302 23.2906C25.1088 23.9099 24.6003 24.4122 23.9771 24.7259C23.3538 25.0396 22.6475 25.1488 21.9586 25.0379C21.2697 24.9271 20.6333 24.6018 20.1399 24.1084C19.6465 23.615 19.3212 22.9786 19.2103 22.2897C19.0995 21.6008 19.2087 20.8945 19.5224 20.2712C19.8361 19.648 20.3384 19.1395 20.9577 18.8181C21.5771 18.4967 22.282 18.3788 22.9722 18.4812C23.6763 18.5856 24.3281 18.9137 24.8313 19.417C25.3346 19.9202 25.6627 20.572 25.7671 21.2761Z" stroke="black" stroke-linecap="round" stroke-linejoin="round"/>
<path d="M27.0112 17.2383H27.0198" stroke="black" stroke-width="1.5" stroke-linecap="round" stroke-linejoin="round"/>
</svg>
