<svg width="45" height="44" viewBox="0 0 45 44" fill="none" xmlns="http://www.w3.org/2000/svg">
<rect x="1.44971" y="0.796875" width="42" height="42" rx="21" stroke="#222222" stroke-width="1.3"/>
<path d="M26.2806 18.4453C27.8046 18.4453 29.2662 19.0507 30.3438 20.1283C31.4214 21.206 32.0268 22.6675 32.0268 24.1915V30.8954H28.196V24.1915C28.196 23.6835 27.9942 23.1963 27.635 22.8371C27.2758 22.4779 26.7886 22.2761 26.2806 22.2761C25.7726 22.2761 25.2854 22.4779 24.9262 22.8371C24.567 23.1963 24.3652 23.6835 24.3652 24.1915V30.8954H20.5344V24.1915C20.5344 22.6675 21.1398 21.206 22.2174 20.1283C23.2951 19.0507 24.7566 18.4453 26.2806 18.4453Z" stroke="black" stroke-linecap="round" stroke-linejoin="round"/>
<path d="M16.7036 19.3984H12.8728V30.8908H16.7036V19.3984Z" stroke="black" stroke-linecap="round" stroke-linejoin="round"/>
<path d="M14.7882 16.5261C15.8461 16.5261 16.7036 15.6686 16.7036 14.6107C16.7036 13.5529 15.8461 12.6953 14.7882 12.6953C13.7304 12.6953 12.8728 13.5529 12.8728 14.6107C12.8728 15.6686 13.7304 16.5261 14.7882 16.5261Z" stroke="black" stroke-linecap="round" stroke-linejoin="round"/>
</svg>
