<svg width="22" height="22" viewBox="0 0 22 22" fill="none" xmlns="http://www.w3.org/2000/svg">
<path d="M14.5 7.04297C15.9587 7.04297 17.3576 7.62648 18.3891 8.66515C19.4205 9.70381 20 11.1125 20 12.5814V19.043H16.3333V12.5814C16.3333 12.0918 16.1402 11.6222 15.7964 11.276C15.4525 10.9298 14.9862 10.7353 14.5 10.7353C14.0138 10.7353 13.5475 10.9298 13.2036 11.276C12.8598 11.6222 12.6667 12.0918 12.6667 12.5814V19.043H9V12.5814C9 11.1125 9.57946 9.70381 10.6109 8.66515C11.6424 7.62648 13.0413 7.04297 14.5 7.04297Z" stroke="black" stroke-width="1.2" stroke-linecap="round" stroke-linejoin="round"/>
<path d="M6 8.04297H2V19.043H6V8.04297Z" stroke="black" stroke-width="1.2" stroke-linecap="round" stroke-linejoin="round"/>
<path d="M4 6.04297C5.10457 6.04297 6 5.14754 6 4.04297C6 2.9384 5.10457 2.04297 4 2.04297C2.89543 2.04297 2 2.9384 2 4.04297C2 5.14754 2.89543 6.04297 4 6.04297Z" stroke="black" stroke-width="1.2" stroke-linecap="round" stroke-linejoin="round"/>
</svg>
