<svg width="20" height="20" viewBox="0 0 20 20" fill="none" xmlns="http://www.w3.org/2000/svg">
<path d="M5.47696 17.7417H2V7.19074H5.47696V17.7417ZM3.74346 5.78403C3.39864 5.78403 3.06156 5.68063 2.77485 5.48689C2.48814 5.29316 2.26467 5.0178 2.13271 4.69563C2.00076 4.37347 1.96623 4.01897 2.0335 3.67696C2.10077 3.33495 2.26682 3.02079 2.51065 2.77422C2.75448 2.52764 3.06513 2.35972 3.40333 2.29169C3.74153 2.22366 4.09208 2.25858 4.41066 2.39202C4.72923 2.52547 5.00152 2.75145 5.1931 3.04139C5.38467 3.33133 5.48692 3.67221 5.48692 4.02092C5.48692 4.48853 5.30324 4.93698 4.97628 5.26763C4.64931 5.59827 4.20586 5.78403 3.74346 5.78403ZM18 17.7404H14.6538V12.6073C14.6538 11.3832 14.6314 9.8077 12.9103 9.8077C11.1669 9.8077 10.9016 11.1414 10.9016 12.5178V17.7404H7.56414V7.1794H10.7734V8.62641H10.8182C11.1475 8.0825 11.6147 7.63756 12.1713 7.33773C12.7279 7.03791 13.3537 6.8941 13.9838 6.92124C17.3711 6.92124 17.9963 9.10749 17.9963 11.9511L18 17.7404Z" fill="#0077B5"/>
</svg>
