<svg width="16" height="16" viewBox="0 0 16 16" fill="none" xmlns="http://www.w3.org/2000/svg">
<path d="M15.3334 2.00084C14.6949 2.45116 13.9881 2.79558 13.24 3.02084C12.8385 2.55918 12.3049 2.23197 11.7114 2.08346C11.1178 1.93495 10.493 1.97231 9.92141 2.19048C9.3498 2.40865 8.85898 2.79711 8.51534 3.30332C8.1717 3.80953 7.99182 4.40907 8.00002 5.02084V5.68751C6.82844 5.71789 5.66754 5.45805 4.62069 4.93114C3.57385 4.40423 2.67357 3.6266 2.00002 2.66751C2.00002 2.66751 -0.666646 8.66751 5.33335 11.3342C3.96037 12.2662 2.32479 12.7335 0.666687 12.6675C6.66669 16.0008 14 12.6675 14 5.00084C13.9994 4.81515 13.9816 4.62991 13.9467 4.44751C14.6271 3.77651 15.1072 2.92932 15.3334 2.00084Z" stroke="black" stroke-linecap="round" stroke-linejoin="round"/>
</svg>
