<svg width="22" height="22" viewBox="0 0 22 22" fill="none" xmlns="http://www.w3.org/2000/svg">
<path fill-rule="evenodd" clip-rule="evenodd" d="M16.3015 14.7646C16.5198 14.1469 16.5198 13.6216 16.4561 13.5105C16.3919 13.3974 16.2167 13.3352 15.9514 13.2014C15.6858 13.0677 14.3938 12.4312 14.1508 12.3463C13.9118 12.256 13.6818 12.288 13.5011 12.5423C13.2468 12.8983 12.9965 13.2597 12.795 13.4784C12.6366 13.6478 12.3749 13.6685 12.1586 13.5782C11.8644 13.4577 11.0472 13.1694 10.038 12.2712C9.25639 11.5761 8.72517 10.71 8.57066 10.4483C8.4181 10.1827 8.55579 10.0282 8.67823 9.88502C8.81006 9.72112 8.93797 9.60454 9.07176 9.45003C9.20359 9.29551 9.27869 9.21649 9.36358 9.03577C9.45394 8.86052 9.38979 8.67979 9.32602 8.54601C9.26187 8.41418 8.73065 7.11664 8.51237 6.59128C8.33712 6.17116 8.20529 6.15433 7.93968 6.14495C7.84932 6.13908 7.74761 6.1336 7.63652 6.1336C7.29189 6.1336 6.93044 6.23531 6.71216 6.4575C6.44655 6.72859 5.78741 7.36152 5.78741 8.65711C5.78741 9.95465 6.7325 11.2092 6.86081 11.384C6.99459 11.5593 8.70444 14.26 11.3598 15.3596C13.4389 16.2202 14.055 16.1412 14.5275 16.0395C15.2188 15.8908 16.0833 15.3803 16.3015 14.7646ZM11.0417 2C16.0246 2 20.0796 6.05458 20.0796 11.0394C20.0796 16.0226 16.0246 20.0792 11.0417 20.0792C9.20358 20.0792 7.49921 19.5311 6.06984 18.5857L2.59499 19.695L3.72119 16.3371C2.63645 14.8495 2 13.0149 2 11.0374C2 8.54601 3.01316 6.28616 4.64986 4.64946C6.28616 3.01316 8.54445 2 11.0359 2H11.0417Z" stroke="black"/>
</svg>
