<svg width="20" height="20" viewBox="0 0 20 20" fill="none" xmlns="http://www.w3.org/2000/svg">
<path d="M2.03577 18L3.16099 13.8917C2.46584 12.6865 2.1007 11.3193 2.10238 9.928C2.10421 5.55644 5.66173 2 10.0334 2C12.1548 2.00108 14.146 2.82665 15.6436 4.32526C17.1411 5.82387 17.9651 7.81584 17.9643 9.93436C17.9624 14.3056 14.4043 17.8627 10.0333 17.8627H10.0298C8.70261 17.8621 7.39845 17.5292 6.24003 16.8975L2.03577 18Z" fill="white"/>
<path d="M10.0357 3.33986C6.3996 3.33986 3.44258 6.2958 3.44129 9.9291C3.4395 11.1698 3.78887 12.3856 4.44902 13.4361L4.60586 13.6854L3.93982 16.1169L6.43474 15.4627L6.67565 15.6055C7.68748 16.206 8.84763 16.5235 10.0307 16.5242H10.0332C13.6665 16.5242 16.6235 13.5679 16.6249 9.93438C16.6277 9.06835 16.4586 8.21037 16.1275 7.41012C15.7964 6.60988 15.3099 5.88326 14.696 5.27233C14.0856 4.65806 13.3594 4.17098 12.5594 3.83927C11.7595 3.50756 10.9017 3.33781 10.0357 3.33986Z" fill="url(#paint0_linear_2953_18752)"/>
<path fill-rule="evenodd" clip-rule="evenodd" d="M8.0511 6.61456C7.90257 6.28461 7.74627 6.27793 7.60517 6.27221L7.22532 6.26758C7.09317 6.26758 6.87845 6.31716 6.69693 6.5155C6.51541 6.71383 6.0033 7.19318 6.0033 8.16814C6.0033 9.14311 6.71342 10.0852 6.81237 10.2176C6.91132 10.3499 8.18325 12.4144 10.1975 13.2088C11.8714 13.8689 12.212 13.7376 12.5755 13.7046C12.939 13.6716 13.7479 13.2252 13.913 12.7625C14.078 12.2998 14.0781 11.9033 14.0286 11.8204C13.9791 11.7375 13.847 11.6883 13.6487 11.5891C13.4503 11.4899 12.4762 11.0106 12.2946 10.9444C12.113 10.8782 11.9809 10.8453 11.8487 11.0437C11.7164 11.242 11.3371 11.6882 11.2214 11.8204C11.1058 11.9527 10.9903 11.9693 10.792 11.8702C10.5937 11.7711 9.95554 11.5618 9.19842 10.8867C8.60935 10.3615 8.21171 9.71278 8.09594 9.51455C7.98018 9.31633 8.08365 9.20897 8.18304 9.11023C8.27196 9.02141 8.38116 8.8788 8.48043 8.76315C8.57971 8.64749 8.61237 8.56481 8.67833 8.43277C8.7443 8.30072 8.71143 8.18474 8.66184 8.08568C8.61226 7.98662 8.22723 7.00648 8.0511 6.61456Z" fill="white"/>
<defs>
<linearGradient id="paint0_linear_2953_18752" x1="9.89891" y1="4.13104" x2="9.96574" y2="15.3979" gradientUnits="userSpaceOnUse">
<stop stop-color="#57D163"/>
<stop offset="1" stop-color="#23B33A"/>
</linearGradient>
</defs>
</svg>
