<svg width="16" height="16" viewBox="0 0 16 16" fill="none" xmlns="http://www.w3.org/2000/svg">
<path d="M15.0266 4.27935C14.9474 3.96296 14.7862 3.67306 14.5591 3.43895C14.332 3.20484 14.0471 3.03481 13.7333 2.94602C12.5866 2.66602 7.99997 2.66602 7.99997 2.66602C7.99997 2.66602 3.41331 2.66602 2.26664 2.97268C1.95281 3.06147 1.66796 3.23151 1.44087 3.46562C1.21378 3.69973 1.0525 3.98962 0.973308 4.30602C0.763451 5.46972 0.660798 6.65022 0.666641 7.83268C0.65916 9.02405 0.761819 10.2136 0.973308 11.386C1.06061 11.6926 1.22551 11.9714 1.45207 12.1957C1.67863 12.4199 1.95919 12.5819 2.26664 12.666C3.41331 12.9727 7.99997 12.9727 7.99997 12.9727C7.99997 12.9727 12.5866 12.9727 13.7333 12.666C14.0471 12.5772 14.332 12.4072 14.5591 12.1731C14.7862 11.939 14.9474 11.6491 15.0266 11.3327C15.2349 10.1777 15.3375 9.00624 15.3333 7.83268C15.3408 6.64132 15.2381 5.45181 15.0266 4.27935Z" stroke="black" stroke-linecap="round" stroke-linejoin="round"/>
<path d="M6.5 10.0143L10.3333 7.8343L6.5 5.6543V10.0143Z" stroke="black" stroke-linecap="round" stroke-linejoin="round"/>
</svg>
