<svg width="30" height="30" viewBox="0 0 30 30" fill="none" xmlns="http://www.w3.org/2000/svg">
<rect x="0.5" y="0.5" width="29" height="29" rx="14.5" stroke="white"/>
<path d="M7.52251 11.6277C7.55957 10.818 7.68635 10.2958 7.8578 9.85258L7.8601 9.84646C8.03 9.39541 8.29615 8.98679 8.64004 8.64906L8.64486 8.64432L8.6496 8.63949C8.98761 8.29517 9.39637 8.02928 9.84703 7.85983L9.85481 7.85686C10.2971 7.68487 10.8182 7.55856 11.6286 7.52152M7.52251 11.6277C7.48356 12.4928 7.47363 12.761 7.47363 15.004C7.47363 17.2475 7.48301 17.5151 7.52249 18.3804M7.52251 11.6277L7.52251 11.8459M7.86081 20.1619C8.03025 20.6126 8.29615 21.0213 8.64047 21.3593L8.64529 21.3641L8.65002 21.3689C8.98777 21.7128 9.3964 21.9789 9.84746 22.1489L9.85419 22.1514C10.2968 22.3231 10.8183 22.4494 11.6286 22.4865M7.86081 20.1619L7.85783 20.1541C7.68585 19.7119 7.55954 19.1907 7.52249 18.3804M7.86081 20.1619L7.85065 20.1084M7.52249 18.3804L7.53576 18.4502M7.52249 18.3804L7.52249 18.1616M7.85065 20.1084L7.53576 18.4502M7.85065 20.1084C7.71691 19.7551 7.5792 19.2622 7.53576 18.4502M7.85065 20.1084C7.85534 20.1208 7.86002 20.133 7.8647 20.1451C8.0343 20.6023 8.30303 21.0163 8.65156 21.3573C8.99247 21.7058 9.4063 21.9745 9.86336 22.1441C10.2302 22.287 10.747 22.4363 11.6285 22.4766C12.518 22.5171 12.7928 22.5254 15.005 22.5254C17.2171 22.5254 17.4922 22.5171 18.3817 22.4766C19.2642 22.4362 19.7805 22.286 20.146 22.1443C20.6033 21.9748 21.0174 21.706 21.3584 21.3573C21.7068 21.0164 21.9755 20.6026 22.145 20.1456C22.2879 19.7788 22.4372 19.2619 22.4776 18.3805C22.5181 17.491 22.5264 17.2156 22.5264 15.004C22.5264 12.7924 22.5181 12.5168 22.4776 11.6272C22.437 10.7401 22.2855 10.2231 22.143 9.85726C21.9568 9.37661 21.7207 9.01308 21.3578 8.65015C20.9956 8.28866 20.633 8.05242 20.152 7.86604C19.7849 7.72251 19.2675 7.57193 18.3817 7.53133C18.3047 7.52783 18.2322 7.52456 18.1628 7.52153M7.53576 18.4502C7.53454 18.4273 7.53338 18.4042 7.53231 18.3807C7.5288 18.3036 7.52553 18.2311 7.52249 18.1616M11.6286 7.52152C12.4939 7.48204 12.762 7.47266 15.005 7.47266C17.2479 7.47266 17.5159 7.48257 18.381 7.52153M11.6286 7.52152L11.8474 7.52152M18.381 7.52153L18.1628 7.52153M18.381 7.52153C19.1908 7.55856 19.7131 7.68532 20.1564 7.85679L20.1625 7.85912C20.6135 8.02902 21.0222 8.29518 21.3599 8.63906L21.3646 8.64384L21.3694 8.64853C21.7133 8.98629 21.9794 9.39502 22.1492 9.8462L22.1521 9.85383C22.3241 10.2961 22.4504 10.8173 22.4874 11.6276M11.8474 7.52152L18.1628 7.52153M11.8474 7.52152C12.5801 7.48948 12.9851 7.48258 15.005 7.48258C17.025 7.48258 17.4299 7.48948 18.1628 7.52153M11.8474 7.52152C11.7778 7.52456 11.7053 7.52782 11.6282 7.53133C10.7457 7.57178 10.2294 7.72193 9.86394 7.86369C9.4049 8.03386 8.98945 8.30401 8.64771 8.65458C8.28817 9.01561 8.05283 9.37739 7.86705 9.85685C7.7235 10.224 7.5729 10.7416 7.5323 11.6275C7.5288 11.7043 7.52554 11.7766 7.52251 11.8459M22.4874 18.3804C22.4504 19.1907 22.3241 19.7121 22.1524 20.1548L22.1498 20.1615C21.9799 20.6126 21.7138 21.0212 21.3699 21.3589L21.3651 21.3637L21.3603 21.3685C21.0223 21.7128 20.6136 21.9787 20.1629 22.1481L20.1551 22.1511C19.7129 22.3231 19.1917 22.4494 18.3813 22.4865M7.52249 18.1616C7.49046 17.4289 7.48356 17.0239 7.48356 15.004C7.48356 12.9835 7.49045 12.5791 7.52251 11.8459M7.52249 18.1616L7.52251 11.8459M13.6655 18.2378C14.0901 18.4137 14.5453 18.5043 15.005 18.5043C15.9333 18.5043 16.8236 18.1355 17.48 17.4791C18.1365 16.8226 18.5052 15.9323 18.5052 15.004C18.5052 14.0757 18.1365 13.1853 17.48 12.5289C16.8236 11.8725 15.9333 11.5037 15.005 11.5037C14.5453 11.5037 14.0901 11.5942 13.6655 11.7701C13.2408 11.9461 12.8549 12.2039 12.5299 12.5289C12.2049 12.8539 11.947 13.2398 11.7711 13.6645C11.5952 14.0892 11.5047 14.5443 11.5047 15.004C11.5047 15.4636 11.5952 15.9188 11.7711 16.3435C11.947 16.7682 12.2049 17.154 12.5299 17.4791C12.8549 17.8041 13.2408 18.0619 13.6655 18.2378ZM12.5221 12.5211C13.1806 11.8626 14.0737 11.4927 15.005 11.4927C15.9362 11.4927 16.8293 11.8626 17.4878 12.5211C18.1463 13.1796 18.5163 14.0727 18.5163 15.004C18.5163 15.9352 18.1463 16.8284 17.4878 17.4869C16.8293 18.1454 15.9362 18.5153 15.005 18.5153C14.0737 18.5153 13.1806 18.1454 12.5221 17.4869C11.8636 16.8284 11.4937 15.9352 11.4937 15.004C11.4937 14.0727 11.8636 13.1796 12.5221 12.5211ZM20.4935 10.6752C20.4935 10.9417 20.3876 11.1973 20.1991 11.3858C20.0106 11.5743 19.755 11.6802 19.4885 11.6802C19.2219 11.6802 18.9663 11.5743 18.7778 11.3858C18.5894 11.1973 18.4835 10.9417 18.4835 10.6752C18.4835 10.4086 18.5894 10.153 18.7778 9.96451C18.9663 9.77604 19.2219 9.67016 19.4885 9.67016C19.755 9.67016 20.0106 9.77604 20.1991 9.96451C20.3876 10.153 20.4935 10.4086 20.4935 10.6752Z" stroke="white" stroke-linejoin="round"/>
</svg>
