<svg width="30" height="30" viewBox="0 0 30 30" fill="none" xmlns="http://www.w3.org/2000/svg">
<path d="M15 0.5C23.0081 0.5 29.5 6.99187 29.5 15C29.5 23.0081 23.0081 29.5 15 29.5C6.99187 29.5 0.5 23.0081 0.5 15C0.5 6.99187 6.99187 0.5 15 0.5Z" stroke="white"/>
<path d="M10.9979 12.764H8.05524V22.1806H10.9979V12.764ZM11.2628 9.52707C11.2643 9.30448 11.222 9.08376 11.1383 8.87752C11.0545 8.67128 10.931 8.48356 10.7746 8.32507C10.6183 8.16659 10.4324 8.04044 10.2273 7.95383C10.0222 7.86722 9.80214 7.82185 9.57955 7.82031H9.52658C9.07392 7.82031 8.6398 8.00013 8.31972 8.32021C7.99964 8.64029 7.81982 9.07441 7.81982 9.52707C7.81982 9.97973 7.99964 10.4138 8.31972 10.7339C8.6398 11.054 9.07392 11.2338 9.52658 11.2338C9.74919 11.2393 9.97069 11.2009 10.1784 11.1207C10.3862 11.0405 10.5761 10.9202 10.7373 10.7667C10.8986 10.6131 11.028 10.4292 11.1181 10.2256C11.2083 10.022 11.2574 9.80265 11.2628 9.58004V9.52707ZM22.1801 16.46C22.1801 13.6292 20.3792 12.5286 18.59 12.5286C18.0042 12.4993 17.421 12.624 16.8984 12.8905C16.3759 13.1569 15.9324 13.5557 15.612 14.047H15.5297V12.764H12.7635V22.1806H15.7062V17.1722C15.6637 16.6592 15.8253 16.1502 16.1558 15.7557C16.4864 15.3612 16.9593 15.113 17.4718 15.0652H17.5836C18.5194 15.0652 19.2139 15.6537 19.2139 17.1368V22.1806H22.1566L22.1801 16.46Z" stroke="white" stroke-width="0.8" stroke-linejoin="round"/>
</svg>
