<svg width="16" height="16" viewBox="0 0 16 16" fill="none" xmlns="http://www.w3.org/2000/svg">
<path d="M10.6667 5.33398C11.7276 5.33398 12.745 5.75541 13.4951 6.50556C14.2453 7.2557 14.6667 8.27312 14.6667 9.33398V14.0007H12V9.33398C12 8.98036 11.8595 8.64122 11.6095 8.39118C11.3594 8.14113 11.0203 8.00065 10.6667 8.00065C10.3131 8.00065 9.97393 8.14113 9.72388 8.39118C9.47383 8.64122 9.33335 8.98036 9.33335 9.33398V14.0007H6.66669V9.33398C6.66669 8.27312 7.08811 7.2557 7.83826 6.50556C8.58841 5.75541 9.60582 5.33398 10.6667 5.33398Z" stroke="black" stroke-linecap="round" stroke-linejoin="round"/>
<path d="M3.99998 6H1.33331V14H3.99998V6Z" stroke="black" stroke-linecap="round" stroke-linejoin="round"/>
<path d="M2.66665 4.00065C3.40303 4.00065 3.99998 3.4037 3.99998 2.66732C3.99998 1.93094 3.40303 1.33398 2.66665 1.33398C1.93027 1.33398 1.33331 1.93094 1.33331 2.66732C1.33331 3.4037 1.93027 4.00065 2.66665 4.00065Z" stroke="black" stroke-linecap="round" stroke-linejoin="round"/>
</svg>
