<svg width="50" height="51" viewBox="0 0 50 51" fill="none" xmlns="http://www.w3.org/2000/svg">
<rect x="0.5" y="1" width="49" height="49" rx="24.5" stroke="black"/>
<path d="M32.1971 21.0408C31.6583 21.2795 31.0867 21.4361 30.5015 21.5052C31.1175 21.1363 31.5782 20.5559 31.7975 19.8722C31.2179 20.2159 30.5838 20.4581 29.9226 20.5883C29.5176 20.157 28.9923 19.8575 28.4149 19.7285C27.8375 19.5995 27.2346 19.647 26.6845 19.8648C26.1345 20.0826 25.6625 20.4607 25.33 20.95C24.9974 21.4394 24.8196 22.0173 24.8196 22.609C24.8196 22.8351 24.8453 23.0604 24.8963 23.2807C23.7226 23.222 22.5744 22.917 21.5263 22.3856C20.4782 21.8542 19.5536 21.1082 18.8126 20.1962C18.4357 20.8463 18.3204 21.6154 18.4901 22.3474C18.6598 23.0794 19.1018 23.7193 19.7263 24.1372C19.2575 24.1223 18.7991 23.9956 18.3892 23.7678V23.8045C18.3892 24.4859 18.625 25.1464 19.0565 25.6738C19.488 26.2011 20.0887 26.563 20.7566 26.6979C20.5034 26.7683 20.2418 26.8046 19.979 26.8059C19.7925 26.8033 19.6067 26.7834 19.4239 26.7465C19.6121 27.3333 19.9791 27.8467 20.4735 28.2146C20.9679 28.5825 21.5649 28.7867 22.1811 28.7985C20.9434 29.7668 19.3731 30.2066 17.8125 30.0221C19.0811 30.8342 20.5448 31.2899 22.0501 31.3415C23.5555 31.3931 25.0469 31.0387 26.3682 30.3154C27.6894 29.5922 28.7916 28.5268 29.5594 27.2309C30.3271 25.935 30.732 24.4565 30.7315 22.9502C30.7315 22.8221 30.7287 22.695 30.7229 22.569C31.3012 22.1512 31.8004 21.6337 32.1971 21.0408Z" fill="black"/>
</svg>
