<svg width="48" height="49" viewBox="0 0 48 49" fill="none" xmlns="http://www.w3.org/2000/svg">
<path d="M24.0411 12.4568C27.9148 12.4568 28.3737 12.4716 29.9035 12.5414C31.318 12.6059 32.0862 12.8422 32.5974 13.0409C33.2746 13.3041 33.7579 13.6185 34.2655 14.1261C34.7732 14.6338 35.0876 15.1171 35.3508 15.7943C35.5495 16.3055 35.7858 17.0737 35.8503 18.4882C35.9201 20.018 35.9349 20.4769 35.9349 24.3506C35.9349 28.2244 35.9201 28.6833 35.8503 30.2131C35.7858 31.6276 35.5495 32.3958 35.3508 32.907C35.0876 33.5842 34.7732 34.0674 34.2656 34.5751C33.7579 35.0828 33.2746 35.3972 32.5974 35.6604C32.0862 35.859 31.318 36.0954 29.9035 36.1599C28.3739 36.2297 27.9151 36.2445 24.0411 36.2445C20.167 36.2445 19.7083 36.2297 18.1786 36.1599C16.7641 36.0954 15.996 35.859 15.4847 35.6604C14.8076 35.3972 14.3243 35.0828 13.8166 34.5751C13.309 34.0674 12.9945 33.5842 12.7314 32.907C12.5327 32.3958 12.2963 31.6276 12.2318 30.2131C12.162 28.6833 12.1472 28.2244 12.1472 24.3506C12.1472 20.4769 12.162 20.018 12.2318 18.4882C12.2963 17.0737 12.5327 16.3055 12.7314 15.7943C12.9945 15.1171 13.3089 14.6338 13.8166 14.1262C14.3243 13.6185 14.8076 13.3041 15.4847 13.0409C15.996 12.8422 16.7641 12.6059 18.1786 12.5414C19.7084 12.4716 20.1673 12.4568 24.0411 12.4568ZM24.0411 9.84277C20.101 9.84277 19.6069 9.85947 18.0595 9.93008C16.5153 10.0005 15.4607 10.2458 14.5379 10.6044C13.5838 10.9751 12.7748 11.4712 11.9682 12.2778C11.1616 13.0843 10.6656 13.8934 10.2949 14.8474C9.93621 15.7702 9.69094 16.8249 9.62051 18.3691C9.5499 19.9165 9.5332 20.4105 9.5332 24.3506C9.5332 28.2907 9.5499 28.7848 9.62051 30.3322C9.69094 31.8764 9.93621 32.931 10.2949 33.8539C10.6656 34.8079 11.1616 35.6169 11.9682 36.4235C12.7748 37.2301 13.5838 37.7261 14.5379 38.0968C15.4607 38.4555 16.5153 38.7008 18.0595 38.7712C19.6069 38.8418 20.101 38.8585 24.0411 38.8585C27.9812 38.8585 28.4752 38.8418 30.0226 38.7712C31.5668 38.7008 32.6215 38.4555 33.5443 38.0968C34.4983 37.7261 35.3074 37.2301 36.114 36.4235C36.9205 35.6169 37.4166 34.8079 37.7873 33.8539C38.1459 32.931 38.3912 31.8764 38.4616 30.3322C38.5322 28.7848 38.5489 28.2907 38.5489 24.3506C38.5489 20.4105 38.5322 19.9165 38.4616 18.3691C38.3912 16.8249 38.1459 15.7702 37.7873 14.8474C37.4166 13.8934 36.9205 13.0843 36.114 12.2778C35.3074 11.4712 34.4983 10.9751 33.5443 10.6044C32.6215 10.2458 31.5668 10.0005 30.0226 9.93008C28.4752 9.85947 27.9812 9.84277 24.0411 9.84277Z" fill="white"/>
<path d="M24.04 16.6709C19.7981 16.6709 16.3594 20.1096 16.3594 24.3515C16.3594 28.5935 19.7981 32.0322 24.04 32.0322C28.2819 32.0322 31.7206 28.5935 31.7206 24.3515C31.7206 20.1096 28.2819 16.6709 24.04 16.6709ZM24.04 29.3372C21.2865 29.3372 19.0543 27.1051 19.0543 24.3515C19.0543 21.598 21.2865 19.3659 24.04 19.3659C26.7935 19.3659 29.0257 21.598 29.0257 24.3515C29.0257 27.1051 26.7935 29.3372 24.04 29.3372Z" fill="white"/>
<path d="M33.4292 16.6697C33.4292 17.6123 32.6651 18.3765 31.7224 18.3765C30.7798 18.3765 30.0156 17.6123 30.0156 16.6697C30.0156 15.7271 30.7798 14.9629 31.7224 14.9629C32.6651 14.9629 33.4292 15.7271 33.4292 16.6697Z" fill="white"/>
</svg>
