<svg width="18" height="17" viewBox="0 0 18 17" fill="none" xmlns="http://www.w3.org/2000/svg">
<path d="M6.90771 4.9288C7.61537 3.36285 9.83918 3.36285 10.5468 4.9288L10.5714 4.98306C10.8575 5.6163 11.4671 6.04234 12.1601 6.09348L12.4031 6.11141C14.0426 6.23238 14.6771 8.30562 13.3861 9.32342C12.8248 9.76599 12.5799 10.5053 12.7592 11.1973C13.1688 12.7776 11.4883 14.1015 10.0651 13.3015L9.718 13.1063C9.10279 12.7605 8.35176 12.7605 7.73655 13.1063L7.38941 13.3015C5.96628 14.1015 4.28574 12.7776 4.69533 11.1973C4.87467 10.5053 4.62977 9.76599 4.06842 9.32342C2.77746 8.30562 3.41196 6.23238 5.05143 6.11141L5.29445 6.09348C5.98746 6.04234 6.59702 5.6163 6.88319 4.98306L6.90771 4.9288Z" fill="#FFB338"/>
</svg>
